<svg width="604" height="336" viewBox="0 0 604 336" fill="none" xmlns="http://www.w3.org/2000/svg">
<g filter="url(#filter0_d_6_912)">
<path d="M37.1258 115.268H75.7017V138H7.67725V17.1059H37.1258V115.268ZM133.49 139.378C124.076 139.378 115.58 137.369 108.003 133.35C100.54 129.332 94.6273 123.591 90.2645 116.129C86.0166 108.666 83.8926 99.9408 83.8926 89.9524C83.8926 80.0788 86.074 71.4107 90.4367 63.9481C94.7995 56.3707 100.77 50.5728 108.347 46.5545C115.924 42.5362 124.42 40.527 133.835 40.527C143.249 40.527 151.745 42.5362 159.322 46.5545C166.9 50.5728 172.87 56.3707 177.232 63.9481C181.595 71.4107 183.777 80.0788 183.777 89.9524C183.777 99.826 181.538 108.551 177.06 116.129C172.697 123.591 166.67 129.332 158.978 133.35C151.4 137.369 142.905 139.378 133.49 139.378ZM133.49 113.89C139.116 113.89 143.88 111.824 147.784 107.69C151.802 103.557 153.811 97.6446 153.811 89.9524C153.811 82.2601 151.86 76.3475 147.956 72.2143C144.167 68.0812 139.46 66.0147 133.835 66.0147C128.094 66.0147 123.33 68.0812 119.541 72.2143C115.752 76.2327 113.858 82.1453 113.858 89.9524C113.858 97.6446 115.695 103.557 119.369 107.69C123.157 111.824 127.865 113.89 133.49 113.89ZM235.909 40.527C242.683 40.527 248.595 41.9047 253.647 44.6601C258.813 47.4156 262.774 51.0321 265.53 55.5096V41.9047H294.978V137.828C294.978 146.668 293.199 154.647 289.64 161.765C286.195 168.998 280.857 174.739 273.624 178.987C266.506 183.235 257.608 185.359 246.931 185.359C232.694 185.359 221.156 181.972 212.316 175.198C203.475 168.539 198.424 159.469 197.161 147.988H226.265C227.183 151.662 229.365 154.533 232.809 156.599C236.253 158.78 240.501 159.871 245.553 159.871C251.638 159.871 256.46 158.092 260.019 154.533C263.693 151.088 265.53 145.52 265.53 137.828V124.223C262.659 128.7 258.699 132.374 253.647 135.245C248.595 138 242.683 139.378 235.909 139.378C227.987 139.378 220.811 137.369 214.382 133.35C207.953 129.217 202.844 123.419 199.055 115.957C195.381 108.379 193.544 99.6537 193.544 89.7802C193.544 79.9066 195.381 71.2385 199.055 63.7759C202.844 56.3133 207.953 50.5728 214.382 46.5545C220.811 42.5362 227.987 40.527 235.909 40.527ZM265.53 89.9524C265.53 82.6046 263.463 76.8067 259.33 72.5588C255.312 68.3108 250.375 66.1869 244.52 66.1869C238.664 66.1869 233.67 68.3108 229.537 72.5588C225.519 76.6919 223.509 82.4324 223.509 89.7802C223.509 97.1279 225.519 102.983 229.537 107.346C233.67 111.594 238.664 113.718 244.52 113.718C250.375 113.718 255.312 111.594 259.33 107.346C263.463 103.098 265.53 97.3002 265.53 89.9524ZM331.093 31.9163C325.927 31.9163 321.679 30.4238 318.349 27.4388C315.135 24.3389 313.528 20.5502 313.528 16.0727C313.528 11.4803 315.135 7.69159 318.349 4.70655C321.679 1.6067 325.927 0.0567801 331.093 0.0567801C336.145 0.0567801 340.278 1.6067 343.493 4.70655C346.822 7.69159 348.487 11.4803 348.487 16.0727C348.487 20.5502 346.822 24.3389 343.493 27.4388C340.278 30.4238 336.145 31.9163 331.093 31.9163ZM345.731 41.9047V138H316.283V41.9047H345.731ZM425.625 40.8714C436.877 40.8714 445.832 44.5453 452.491 51.8931C459.264 59.1261 462.651 69.1145 462.651 81.8583V138H433.375V85.8192C433.375 79.3899 431.71 74.3957 428.381 70.8366C425.051 67.2776 420.574 65.498 414.948 65.498C409.322 65.498 404.845 67.2776 401.515 70.8366C398.186 74.3957 396.521 79.3899 396.521 85.8192V138H367.073V41.9047H396.521V54.6485C399.506 50.4006 403.524 47.0711 408.576 44.6601C413.628 42.1343 419.311 40.8714 425.625 40.8714ZM51.4195 327.205C42.5792 327.205 34.6574 325.77 27.654 322.9C20.6507 320.03 15.025 315.782 10.7771 310.156C6.64397 304.531 4.4626 297.757 4.23298 289.835H35.5759C36.0351 294.313 37.585 297.757 40.2257 300.168C42.8663 302.464 46.3105 303.612 50.5585 303.612C54.9212 303.612 58.3655 302.636 60.8913 300.685C63.4171 298.618 64.68 295.805 64.68 292.246C64.68 289.261 63.6467 286.793 61.5802 284.841C59.6284 282.889 57.16 281.282 54.175 280.019C51.3047 278.756 47.1716 277.321 41.7756 275.714C33.9686 273.303 27.5966 270.892 22.6598 268.481C17.7231 266.07 13.4751 262.511 9.91603 257.803C6.35695 253.096 4.57741 246.954 4.57741 239.376C4.57741 228.125 8.65313 219.342 16.8046 213.028C24.956 206.598 35.5759 203.384 48.6641 203.384C61.982 203.384 72.7166 206.598 80.8681 213.028C89.0195 219.342 93.3823 228.183 93.9563 239.549H62.0968C61.8672 235.645 60.4321 232.603 57.7915 230.421C55.1508 228.125 51.764 226.977 47.6308 226.977C44.0718 226.977 41.2015 227.953 39.0202 229.905C36.8388 231.742 35.7481 234.44 35.7481 237.999C35.7481 241.902 37.585 244.945 41.2589 247.126C44.9328 249.307 50.6733 251.661 58.4803 254.187C66.2873 256.827 72.6018 259.353 77.4238 261.764C82.3606 264.175 86.6086 267.677 90.1676 272.269C93.7267 276.862 95.5063 282.774 95.5063 290.007C95.5063 296.896 93.7267 303.153 90.1676 308.779C86.7234 314.404 81.6718 318.882 75.0128 322.211C68.3539 325.541 60.4895 327.205 51.4195 327.205ZM107.774 277.952C107.774 267.964 109.783 259.238 113.801 251.776C117.934 244.313 123.617 238.573 130.85 234.554C138.198 230.536 146.579 228.527 155.994 228.527C168.049 228.527 178.094 231.684 186.131 237.999C194.283 244.313 199.621 253.211 202.147 264.692H170.804C168.163 257.344 163.054 253.67 155.477 253.67C150.081 253.67 145.776 255.794 142.561 260.042C139.346 264.175 137.739 270.145 137.739 277.952C137.739 285.759 139.346 291.787 142.561 296.035C145.776 300.168 150.081 302.235 155.477 302.235C163.054 302.235 168.163 298.561 170.804 291.213H202.147C199.621 302.464 194.283 311.304 186.131 317.734C177.98 324.163 167.934 327.378 155.994 327.378C146.579 327.378 138.198 325.369 130.85 321.35C123.617 317.332 117.934 311.591 113.801 304.129C109.783 296.666 107.774 287.941 107.774 277.952ZM247.348 245.921C250.792 240.639 255.097 236.506 260.264 233.521C265.43 230.421 271.171 228.871 277.485 228.871V260.042H269.391C262.043 260.042 256.532 261.649 252.859 264.864C249.185 267.964 247.348 273.475 247.348 281.397V326H217.899V229.905H247.348V245.921ZM382.145 276.402C382.145 279.158 381.973 282.028 381.629 285.013H314.982C315.441 290.983 317.336 295.576 320.665 298.79C324.109 301.89 328.3 303.44 333.237 303.44C340.584 303.44 345.693 300.34 348.564 294.14H379.907C378.299 300.455 375.372 306.138 371.124 311.19C366.99 316.241 361.767 320.202 355.452 323.072C349.138 325.943 342.077 327.378 334.27 327.378C324.856 327.378 316.474 325.369 309.127 321.35C301.779 317.332 296.038 311.591 291.905 304.129C287.772 296.666 285.706 287.941 285.706 277.952C285.706 267.964 287.715 259.238 291.733 251.776C295.866 244.313 301.607 238.573 308.954 234.554C316.302 230.536 324.741 228.527 334.27 228.527C343.569 228.527 351.836 230.479 359.069 234.382C366.302 238.286 371.927 243.854 375.946 251.087C380.079 258.32 382.145 266.758 382.145 276.402ZM352.008 268.653C352.008 263.601 350.286 259.583 346.841 256.598C343.397 253.613 339.092 252.12 333.925 252.12C328.989 252.12 324.798 253.555 321.354 256.426C318.024 259.296 315.958 263.372 315.154 268.653H352.008ZM488.265 276.402C488.265 279.158 488.093 282.028 487.749 285.013H421.102C421.561 290.983 423.456 295.576 426.785 298.79C430.229 301.89 434.42 303.44 439.357 303.44C446.704 303.44 451.813 300.34 454.684 294.14H486.027C484.419 300.455 481.492 306.138 477.244 311.19C473.11 316.241 467.887 320.202 461.572 323.072C455.258 325.943 448.197 327.378 440.39 327.378C430.976 327.378 422.594 325.369 415.247 321.35C407.899 317.332 402.158 311.591 398.025 304.129C393.892 296.666 391.826 287.941 391.826 277.952C391.826 267.964 393.835 259.238 397.853 251.776C401.986 244.313 407.727 238.573 415.074 234.554C422.422 230.536 430.861 228.527 440.39 228.527C449.689 228.527 457.956 230.479 465.189 234.382C472.422 238.286 478.047 243.854 482.066 251.087C486.199 258.32 488.265 266.758 488.265 276.402ZM458.128 268.653C458.128 263.601 456.406 259.583 452.961 256.598C449.517 253.613 445.212 252.12 440.045 252.12C435.109 252.12 430.918 253.555 427.474 256.426C424.144 259.296 422.078 263.372 421.274 268.653H458.128ZM562.354 228.871C573.605 228.871 582.56 232.545 589.219 239.893C595.993 247.126 599.379 257.115 599.379 269.858V326H570.103V273.819C570.103 267.39 568.438 262.396 565.109 258.837C561.779 255.278 557.302 253.498 551.676 253.498C546.051 253.498 541.573 255.278 538.244 258.837C534.914 262.396 533.249 267.39 533.249 273.819V326H503.801V229.905H533.249V242.649C536.234 238.401 540.253 235.071 545.304 232.66C550.356 230.134 556.039 228.871 562.354 228.871Z" fill="black"/>
</g>
<defs>
<filter id="filter0_d_6_912" x="0.232979" y="0.0567627" width="603.147" height="335.321" filterUnits="userSpaceOnUse" color-interpolation-filters="sRGB">
<feFlood flood-opacity="0" result="BackgroundImageFix"/>
<feColorMatrix in="SourceAlpha" type="matrix" values="0 0 0 0 0 0 0 0 0 0 0 0 0 0 0 0 0 0 127 0" result="hardAlpha"/>
<feOffset dy="4"/>
<feGaussianBlur stdDeviation="2"/>
<feComposite in2="hardAlpha" operator="out"/>
<feColorMatrix type="matrix" values="0 0 0 0 0 0 0 0 0 0 0 0 0 0 0 0 0 0 0.25 0"/>
<feBlend mode="normal" in2="BackgroundImageFix" result="effect1_dropShadow_6_912"/>
<feBlend mode="normal" in="SourceGraphic" in2="effect1_dropShadow_6_912" result="shape"/>
</filter>
</defs>
</svg>
